<svg width="340" height="60" viewBox="0 0 340 60" fill="none" xmlns="http://www.w3.org/2000/svg">
<path d="M21.264 28.336C23.504 28.784 25.312 29.6 26.688 30.784C28.064 31.968 28.752 33.776 28.752 36.208C28.752 39.824 27.44 42.368 24.816 43.84C22.192 45.28 18.528 46 13.824 46H2.592V12.64H12.528C17.328 12.64 20.992 13.312 23.52 14.656C26.08 15.968 27.36 18.16 27.36 21.232C27.36 23.184 26.768 24.752 25.584 25.936C24.432 27.088 22.992 27.888 21.264 28.336ZM11.472 18.832V25.792H13.776C15.344 25.792 16.496 25.504 17.232 24.928C17.968 24.352 18.336 23.424 18.336 22.144C18.336 20.96 17.936 20.112 17.136 19.6C16.368 19.088 15.104 18.832 13.344 18.832H11.472ZM13.872 39.664C15.76 39.664 17.184 39.392 18.144 38.848C19.104 38.272 19.584 37.216 19.584 35.68C19.584 34.208 19.136 33.152 18.24 32.512C17.344 31.84 16.048 31.504 14.352 31.504H11.472V39.664H13.872ZM43.6388 33.712H41.1908V46H32.3108V12.64H43.8788C48.5828 12.64 52.0868 13.488 54.3907 15.184C56.7268 16.88 57.8948 19.488 57.8948 23.008C57.8948 25.12 57.3988 26.88 56.4068 28.288C55.4468 29.696 53.8948 30.96 51.7508 32.08L60.0548 46H50.1668L43.6388 33.712ZM41.1908 27.664H44.1668C47.2388 27.664 48.7748 26.112 48.7748 23.008C48.7748 21.568 48.3428 20.512 47.4788 19.84C46.6468 19.168 45.3828 18.832 43.6868 18.832H41.1908V27.664ZM88.0545 34.816C88.0545 37.12 87.5425 39.184 86.5185 41.008C85.5265 42.832 84.0225 44.272 82.0065 45.328C79.9905 46.352 77.5265 46.864 74.6145 46.864C70.1985 46.864 66.8545 45.792 64.5825 43.648C62.3105 41.472 61.1745 38.528 61.1745 34.816V12.64H70.0545V34.528C70.0545 36.544 70.4065 38.032 71.1105 38.992C71.8465 39.92 73.0145 40.384 74.6145 40.384C76.2145 40.384 77.3665 39.904 78.0705 38.944C78.7745 37.984 79.1265 36.512 79.1265 34.528V12.64H88.0545V34.816ZM119.085 46H107.901L99.4526 20.896L99.5966 21.904C99.9166 24.112 100.157 26.192 100.317 28.144C100.509 30.064 100.605 32.256 100.605 34.72V46H92.7326V12.64H103.677L112.413 37.84C112.029 35.44 111.725 33.28 111.501 31.36C111.309 29.44 111.213 27.232 111.213 24.736V12.64H119.085V46ZM138.248 11.776C143.08 11.776 146.84 13.312 149.528 16.384C152.216 19.456 153.56 23.76 153.56 29.296C153.56 32.912 152.952 36.048 151.736 38.704C150.552 41.328 148.808 43.344 146.504 44.752C144.2 46.16 141.448 46.864 138.248 46.864C133.416 46.864 129.656 45.328 126.968 42.256C124.312 39.184 122.984 34.864 122.984 29.296C122.984 25.68 123.576 22.56 124.76 19.936C125.976 17.312 127.72 15.296 129.992 13.888C132.296 12.48 135.048 11.776 138.248 11.776ZM138.248 18.16C136.168 18.16 134.632 19.024 133.64 20.752C132.68 22.48 132.2 25.328 132.2 29.296C132.2 33.264 132.696 36.128 133.688 37.888C134.68 39.616 136.2 40.48 138.248 40.48C140.36 40.48 141.896 39.616 142.856 37.888C143.816 36.16 144.296 33.296 144.296 29.296C144.296 25.328 143.816 22.48 142.856 20.752C141.896 19.024 140.36 18.16 138.248 18.16ZM179.862 11.776C182.39 11.776 184.614 12.144 186.534 12.88C188.486 13.616 190.23 14.72 191.766 16.192L187.782 20.896C185.478 19.072 183.062 18.16 180.534 18.16C179.222 18.16 178.214 18.416 177.51 18.928C176.838 19.408 176.502 20.096 176.502 20.992C176.502 21.632 176.678 22.16 177.03 22.576C177.382 22.992 177.974 23.392 178.806 23.776C179.638 24.16 180.95 24.64 182.742 25.216C186.166 26.304 188.662 27.68 190.23 29.344C191.83 30.976 192.63 33.248 192.63 36.16C192.63 38.272 192.086 40.144 190.998 41.776C189.91 43.376 188.326 44.624 186.246 45.52C184.198 46.416 181.782 46.864 178.998 46.864C173.686 46.864 169.35 45.248 165.99 42.016L170.358 37.168C173.014 39.344 175.782 40.432 178.662 40.432C180.166 40.432 181.334 40.112 182.166 39.472C182.998 38.8 183.414 37.92 183.414 36.832C183.414 36.064 183.254 35.44 182.934 34.96C182.614 34.448 182.038 34 181.206 33.616C180.406 33.2 179.222 32.752 177.654 32.272C173.878 31.088 171.222 29.664 169.686 28C168.15 26.336 167.382 24.24 167.382 21.712C167.382 19.728 167.91 17.984 168.966 16.48C170.054 14.976 171.542 13.824 173.43 13.024C175.35 12.192 177.494 11.776 179.862 11.776ZM213.471 46L211.983 39.184H203.151L201.663 46H192.447L202.335 12.64H212.991L222.879 46H213.471ZM204.543 32.848H210.591L207.567 18.976L204.543 32.848ZM250.897 46H239.713L231.265 20.896L231.409 21.904C231.729 24.112 231.969 26.192 232.129 28.144C232.321 30.064 232.417 32.256 232.417 34.72V46H224.545V12.64H235.489L244.225 37.84C243.841 35.44 243.537 33.28 243.313 31.36C243.121 29.44 243.025 27.232 243.025 24.736V12.64H250.897V46ZM279.852 12.64L278.94 19.408H271.068V46H262.188V19.408H253.836V12.64H279.852ZM294.623 11.776C299.455 11.776 303.215 13.312 305.903 16.384C308.591 19.456 309.935 23.76 309.935 29.296C309.935 32.912 309.327 36.048 308.111 38.704C306.927 41.328 305.183 43.344 302.879 44.752C300.575 46.16 297.823 46.864 294.623 46.864C289.791 46.864 286.031 45.328 283.343 42.256C280.687 39.184 279.359 34.864 279.359 29.296C279.359 25.68 279.951 22.56 281.135 19.936C282.351 17.312 284.095 15.296 286.367 13.888C288.671 12.48 291.423 11.776 294.623 11.776ZM294.623 18.16C292.543 18.16 291.007 19.024 290.015 20.752C289.055 22.48 288.575 25.328 288.575 29.296C288.575 33.264 289.071 36.128 290.062 37.888C291.055 39.616 292.575 40.48 294.623 40.48C296.735 40.48 298.271 39.616 299.231 37.888C300.191 36.16 300.671 33.296 300.671 29.296C300.671 25.328 300.191 22.48 299.231 20.752C298.271 19.024 296.735 18.16 294.623 18.16ZM325.315 11.776C327.843 11.776 330.067 12.144 331.987 12.88C333.939 13.616 335.683 14.72 337.219 16.192L333.235 20.896C330.931 19.072 328.515 18.16 325.987 18.16C324.675 18.16 323.667 18.416 322.963 18.928C322.291 19.408 321.955 20.096 321.955 20.992C321.955 21.632 322.131 22.16 322.483 22.576C322.835 22.992 323.427 23.392 324.259 23.776C325.091 24.16 326.403 24.64 328.195 25.216C331.619 26.304 334.115 27.68 335.683 29.344C337.283 30.976 338.083 33.248 338.083 36.16C338.083 38.272 337.539 40.144 336.451 41.776C335.363 43.376 333.779 44.624 331.699 45.52C329.651 46.416 327.235 46.864 324.451 46.864C319.139 46.864 314.803 45.248 311.443 42.016L315.811 37.168C318.467 39.344 321.235 40.432 324.115 40.432C325.619 40.432 326.787 40.112 327.619 39.472C328.451 38.8 328.867 37.92 328.867 36.832C328.867 36.064 328.707 35.44 328.387 34.96C328.067 34.448 327.491 34 326.659 33.616C325.859 33.2 324.675 32.752 323.107 32.272C319.331 31.088 316.675 29.664 315.139 28C313.603 26.336 312.835 24.24 312.835 21.712C312.835 19.728 313.363 17.984 314.419 16.48C315.507 14.976 316.995 13.824 318.883 13.024C320.803 12.192 322.947 11.776 325.315 11.776Z" fill="black"/>
</svg>
