<svg width="25" height="20" viewBox="0 0 25 20" fill="none" xmlns="http://www.w3.org/2000/svg">
<path d="M20.7031 17.5C18.5851 17.5 16.48 17.0833 14.388 16.25C12.296 15.4167 10.4167 14.3333 8.75 13C7.08333 11.6667 5.72917 10.1632 4.6875 8.48958C3.64583 6.81597 3.125 5.13194 3.125 3.4375C3.125 3.17361 3.23785 2.95139 3.46354 2.77083C3.68924 2.59028 3.96701 2.5 4.29687 2.5H7.94271C8.18576 2.5 8.39844 2.56597 8.58073 2.69792C8.76302 2.82986 8.88021 3.00694 8.93229 3.22917L9.63542 5.85417C9.67014 6.04861 9.6658 6.22569 9.6224 6.38542C9.57899 6.54514 9.48785 6.68056 9.34896 6.79167L6.74479 8.89583C7.71701 10.1875 8.80642 11.3125 10.013 12.2708C11.2196 13.2292 12.5868 14.0417 14.1146 14.7083L16.5885 12.6667C16.7622 12.5139 16.9618 12.4062 17.1875 12.3437C17.4132 12.2812 17.6389 12.2708 17.8646 12.3125L20.9635 12.8542C21.224 12.8958 21.441 13 21.6146 13.1667C21.7882 13.3333 21.875 13.5278 21.875 13.75V16.5625C21.875 16.8264 21.7622 17.0486 21.5365 17.2292C21.3108 17.4097 21.033 17.5 20.7031 17.5ZM5.96354 7.75L8.07292 6.04167L7.47396 3.75H4.6875C4.6875 4.29167 4.79167 4.88542 5 5.53125C5.20833 6.17708 5.52951 6.91667 5.96354 7.75ZM20.3125 16.25V14.0208L17.6302 13.5833L15.5729 15.3125C16.2847 15.5764 17.0573 15.7917 17.8906 15.9583C18.724 16.125 19.5312 16.2222 20.3125 16.25Z" fill="url(#paint0_linear_0_12)"/>
<defs>
<linearGradient id="paint0_linear_0_12" x1="12.5" y1="2.5" x2="12.5" y2="17.5" gradientUnits="userSpaceOnUse">
<stop stop-color="#3554A4"/>
<stop offset="1" stop-color="#2054D8"/>
</linearGradient>
</defs>
</svg>
